<svg id="Layer_1" data-name="Layer 1" xmlns="http://www.w3.org/2000/svg" xmlns:xlink="http://www.w3.org/1999/xlink" viewBox="0 0 512 512"><defs><style>.cls-1{fill:url(#linear-gradient);}</style><linearGradient id="linear-gradient" y1="256" x2="511.91" y2="256" gradientUnits="userSpaceOnUse"><stop offset="0" stop-color="#d32027"/><stop offset="0.22" stop-color="#d12127"/><stop offset="0.3" stop-color="#ca2528"/><stop offset="0.35" stop-color="#bf2c2a"/><stop offset="0.4" stop-color="#ae352d"/><stop offset="0.44" stop-color="#984130"/><stop offset="0.47" stop-color="#7c5134"/><stop offset="0.5" stop-color="#5c6339"/><stop offset="0.53" stop-color="#36783f"/><stop offset="0.55" stop-color="#0d8f46"/><stop offset="0.56" stop-color="#059447"/></linearGradient></defs><rect width="512" height="512" rx="53.94"/><path class="cls-1" d="M177.32,1c-3.33,1.55-5.17,4-6.47,8.59-1.85,6.55-15,59.25-22.19,88.67-7.81,32.08-35.35,146.69-35.35,147.08,0,.15-23.82.26-52.93.26H7.45l-3,3c-5.84,6-5.95,9.74-.45,15.42l2.38,2.45,39,0c21.42,0,48-.21,59.07-.43,21.95-.43,22.4-.49,24.16-3.52,2-3.53,8-26.7,26.55-103.66,17.71-73.41,22.65-93,23.43-93,.18,0,1.09,5,2,11.26s11.11,70.2,22.58,142.25c21.54,135.28,42,264.49,43.9,277.29,1.3,8.78,1.59,9.59,4.37,12.17,3.87,3.58,8.52,4.19,12.49,1.62,3.8-2.45-.33,12.5,58.37-211.29,25.81-98.39,35-133.12,35.26-133.4s1.05,2.36,13.58,44c10.65,35.43,14.59,47.76,16.44,51.42,1.51,3,2.74,3.77,6.66,4.28,2,.26,27.75.62,57.37.81l53.82.34,2.73-3c3-3.24,4.08-6.06,3.64-9.3-.61-4.45-4.12-6.89-11.23-7.8-2.22-.28-24.92-.65-50.63-.82l-46.61-.31-1.3-4c-.72-2.18-6.75-22.31-13.39-44.72-16.28-54.92-21.53-71.73-23.81-76.13a9.28,9.28,0,0,0-5.6-4.61c-2.57-.72-4.44-.29-7.05,1.63-4.4,3.24-5.57,7.27-36.91,126.81-34.57,131.88-52.91,200.68-54,202.68-.28.51-.73-.84-1.27-3.81-2.11-11.56-14.82-90.29-35.41-219.4C200,69.87,190,9.39,188.56,5.49,188,4,182.13,0,180.51,0a10.49,10.49,0,0,0-3.19,1Z"/></svg>